<?xml version="1.0" standalone="no"?>
<!DOCTYPE svg PUBLIC "-//W3C//DTD SVG 20010904//EN"
 "http://www.w3.org/TR/2001/REC-SVG-20010904/DTD/svg10.dtd">
<svg version="1.0" xmlns="http://www.w3.org/2000/svg"
 width="1280.000000pt" height="1257.000000pt" viewBox="0 0 1280.000000 1257.000000"
 preserveAspectRatio="xMidYMid meet">
<metadata>
Created by potrace 1.15, written by Peter Selinger 2001-2017
</metadata>
<g transform="translate(0.000000,1257.000000) scale(0.100000,-0.100000)"
fill="#000000" stroke="none">
<path d="M6550 12488 c-237 -7 -458 -22 -575 -38 -38 -5 -131 -17 -205 -26
-216 -25 -522 -78 -720 -125 -244 -57 -351 -86 -545 -149 -382 -124 -775 -312
-1033 -497 -614 -438 -1057 -1060 -1246 -1751 -87 -315 -120 -570 -119 -917 1
-404 45 -759 158 -1295 9 -41 47 -196 85 -345 153 -600 261 -924 411 -1230
112 -229 211 -351 434 -539 181 -152 277 -235 310 -270 152 -162 197 -228 365
-536 269 -492 448 -731 839 -1120 167 -166 202 -205 229 -261 44 -92 43 -101
-25 -147 -110 -74 -193 -110 -313 -136 -129 -27 -173 -44 -291 -112 -114 -66
-217 -144 -413 -313 -295 -255 -329 -283 -421 -351 -156 -115 -253 -168 -433
-238 -160 -62 -401 -137 -652 -202 -561 -146 -808 -235 -1000 -358 -30 -19
-109 -63 -175 -97 -235 -120 -404 -244 -600 -440 -256 -255 -424 -516 -551
-856 -24 -65 -44 -123 -44 -129 0 -7 1966 -10 6356 -10 l6356 0 -75 83 c-194
214 -415 405 -707 614 -223 159 -370 243 -425 243 -20 0 -34 4 -31 9 11 16
-32 41 -254 149 -448 217 -776 345 -1195 466 -154 45 -167 50 -172 63 -8 21
24 177 122 589 103 433 169 668 257 914 l34 94 69 18 c39 10 174 36 300 58
418 71 550 101 691 155 208 81 340 194 414 359 48 106 61 170 67 336 7 196 -7
256 -106 461 -135 280 -135 353 -4 619 49 98 58 125 61 183 7 108 -26 169
-166 315 -23 24 -42 46 -42 49 0 3 18 26 41 50 53 58 79 116 79 180 0 74 -25
132 -116 269 -112 171 -136 223 -142 308 -7 122 19 171 200 370 99 110 134
174 150 272 22 145 -23 271 -141 392 -83 86 -151 136 -349 258 -86 53 -220
144 -297 202 -353 265 -527 445 -587 607 -32 87 -31 242 2 385 33 138 35 354
6 440 -52 152 -137 279 -356 532 -167 193 -202 255 -359 629 -209 497 -630
994 -1106 1304 -94 62 -307 185 -319 185 -2 0 -42 17 -88 39 -357 167 -809
273 -1220 287 -95 3 -177 7 -183 8 -5 1 -111 -2 -235 -6z"/>
</g>
</svg>
